<svg width="435" height="364" viewBox="0 0 435 364" fill="none" xmlns="http://www.w3.org/2000/svg">
<path fill-rule="evenodd" clip-rule="evenodd" d="M426.799 95.7637V122.013H427.438V95.1249H316V95.7637H426.799Z" fill="#9DB4F4"/>
<path fill-rule="evenodd" clip-rule="evenodd" d="M427.116 135.969C429.602 135.969 431.591 134.05 431.591 131.714C431.591 129.379 429.602 127.46 427.116 127.46C424.631 127.46 422.642 129.379 422.642 131.714C422.642 134.05 424.631 135.969 427.116 135.969ZM432.23 131.714C432.23 134.431 429.926 136.607 427.116 136.607C424.307 136.607 422.003 134.431 422.003 131.714C422.003 128.998 424.307 126.821 427.116 126.821C429.926 126.821 432.23 128.998 432.23 131.714Z" fill="#9DB4F4"/>
<path fill-rule="evenodd" clip-rule="evenodd" d="M245.414 5.03346C245.414 7.39146 243.503 9.30301 241.145 9.30301C238.787 9.30301 236.875 7.39146 236.875 5.03346C236.875 2.67547 238.787 0.76395 241.145 0.76395C243.503 0.76395 245.414 2.67547 245.414 5.03346ZM241.145 9.94189C243.856 9.94189 246.053 7.7443 246.053 5.03346C246.053 2.32263 243.856 0.125061 241.145 0.125061C238.434 0.125061 236.236 2.32263 236.236 5.03346C236.236 7.7443 238.434 9.94189 241.145 9.94189Z" fill="#9DB4F4"/>
<path fill-rule="evenodd" clip-rule="evenodd" d="M241.31 102.136L241.31 13.7501L240.671 13.7501L240.671 102.136L241.31 102.136Z" fill="#9DB4F4"/>
<path d="M387.944 51.5552H227.946C224.11 51.5552 221 54.6699 221 58.5122V179.598C221 183.44 224.11 186.555 227.946 186.555H387.944C391.78 186.555 394.889 183.44 394.889 179.598V58.5122C394.889 54.6699 391.78 51.5552 387.944 51.5552Z" fill="url(#paint0_linear_1058_104957)"/>
<path fill-rule="evenodd" clip-rule="evenodd" d="M227.945 51.8747C224.287 51.8747 221.32 54.846 221.32 58.5123V179.598C221.32 183.265 224.287 186.236 227.945 186.236H387.944C391.603 186.236 394.57 183.265 394.57 179.598V58.5123C394.57 54.846 391.603 51.8747 387.944 51.8747H227.945ZM220.681 58.5123C220.681 54.4941 223.933 51.2358 227.945 51.2358H387.944C391.956 51.2358 395.208 54.4941 395.208 58.5123V179.598C395.208 183.616 391.956 186.875 387.944 186.875H227.945C223.933 186.875 220.681 183.616 220.681 179.598V58.5123Z" fill="#A0B3F2"/>
<g style="mix-blend-mode:overlay" opacity="0.6">
<g style="mix-blend-mode:overlay" opacity="0.5">
<g style="mix-blend-mode:overlay" opacity="0.5">
<path d="M391.126 61.2461H234.192C232.437 61.2461 231.015 62.6706 231.015 64.4277V181.576C231.015 183.333 232.437 184.758 234.192 184.758H391.126C392.88 184.758 394.302 183.333 394.302 181.576V64.4277C394.302 62.6706 392.88 61.2461 391.126 61.2461Z" fill="black"/>
</g>
</g>
<g style="mix-blend-mode:overlay" opacity="0.6">
<path d="M387.278 57.3921H230.344C228.59 57.3921 227.167 58.8165 227.167 60.5737V177.722C227.167 179.479 228.59 180.904 230.344 180.904H387.278C389.032 180.904 390.454 179.479 390.454 177.722V60.5737C390.454 58.8165 389.032 57.3921 387.278 57.3921Z" fill="white"/>
</g>
</g>
<path d="M351.307 212.009C351.307 211.12 351.404 209.769 352.631 209.769C353.858 209.769 353.955 211.12 353.955 212.009C353.955 212.898 353.858 214.249 352.631 214.249C351.404 214.249 351.307 212.898 351.307 212.009ZM350.444 212.009C350.444 212.8 350.542 213.564 350.907 214.124C351.271 214.676 351.875 215.022 352.631 215.022C353.387 215.022 353.991 214.676 354.355 214.124C354.72 213.564 354.818 212.8 354.818 212.009C354.818 211.218 354.72 210.453 354.355 209.893C353.991 209.342 353.387 208.996 352.631 208.996C351.875 208.996 351.271 209.342 350.907 209.893C350.542 210.453 350.444 211.218 350.444 212.009Z" fill="#9DB4F4"/>
<path d="M356.281 212.009C356.281 211.12 356.378 209.769 357.605 209.769C358.832 209.769 358.929 211.12 358.929 212.009C358.929 212.898 358.832 214.249 357.605 214.249C356.378 214.249 356.281 212.898 356.281 212.009ZM355.418 212.009C355.418 212.8 355.516 213.564 355.881 214.124C356.245 214.676 356.849 215.022 357.605 215.022C358.361 215.022 358.965 214.676 359.329 214.124C359.694 213.564 359.792 212.8 359.792 212.009C359.792 211.218 359.694 210.453 359.329 209.893C358.965 209.342 358.361 208.996 357.605 208.996C356.849 208.996 356.245 209.342 355.881 209.893C355.516 210.453 355.418 211.218 355.418 212.009Z" fill="#9DB4F4"/>
<path d="M361.023 214.107V214.889H364.712V214.107H363.326V209.129H362.561C362.428 209.751 361.877 210.196 361.077 210.213V210.827H362.472V214.107H361.023Z" fill="#9DB4F4"/>
<path d="M365.997 214.107V214.889H369.686V214.107H368.3V209.129H367.535C367.402 209.751 366.851 210.196 366.051 210.213V210.827H367.446V214.107H365.997Z" fill="#9DB4F4"/>
<path d="M371.202 212.009C371.202 211.12 371.3 209.769 372.527 209.769C373.753 209.769 373.851 211.12 373.851 212.009C373.851 212.898 373.753 214.249 372.527 214.249C371.3 214.249 371.202 212.898 371.202 212.009ZM370.34 212.009C370.34 212.8 370.438 213.564 370.802 214.124C371.167 214.676 371.771 215.022 372.527 215.022C373.282 215.022 373.887 214.676 374.251 214.124C374.616 213.564 374.713 212.8 374.713 212.009C374.713 211.218 374.616 210.453 374.251 209.893C373.887 209.342 373.282 208.996 372.527 208.996C371.771 208.996 371.167 209.342 370.802 209.893C370.438 210.453 370.34 211.218 370.34 212.009Z" fill="#9DB4F4"/>
<path d="M375.945 214.107V214.889H379.634V214.107H378.247V209.129H377.483C377.35 209.751 376.799 210.196 375.999 210.213V210.827H377.394V214.107H375.945Z" fill="#9DB4F4"/>
<path d="M380.919 214.107V214.889H384.608V214.107H383.221V209.129H382.457C382.324 209.751 381.773 210.196 380.973 210.213V210.827H382.368V214.107H380.919Z" fill="#9DB4F4"/>
<path d="M385.893 214.107V214.889H389.582V214.107H388.195V209.129H387.431C387.298 209.751 386.746 210.196 385.946 210.213V210.827H387.342V214.107H385.893Z" fill="#9DB4F4"/>
<path d="M396.072 212.009C396.072 211.12 396.17 209.769 397.397 209.769C398.623 209.769 398.721 211.12 398.721 212.009C398.721 212.898 398.623 214.249 397.397 214.249C396.17 214.249 396.072 212.898 396.072 212.009ZM395.21 212.009C395.21 212.8 395.308 213.564 395.672 214.124C396.037 214.676 396.641 215.022 397.397 215.022C398.152 215.022 398.757 214.676 399.121 214.124C399.486 213.564 399.583 212.8 399.583 212.009C399.583 211.218 399.486 210.453 399.121 209.893C398.757 209.342 398.152 208.996 397.397 208.996C396.641 208.996 396.037 209.342 395.672 209.893C395.308 210.453 395.21 211.218 395.21 212.009Z" fill="#9DB4F4"/>
<path d="M401.046 212.009C401.046 211.12 401.144 209.769 402.371 209.769C403.597 209.769 403.695 211.12 403.695 212.009C403.695 212.898 403.597 214.249 402.371 214.249C401.144 214.249 401.046 212.898 401.046 212.009ZM400.184 212.009C400.184 212.8 400.282 213.564 400.646 214.124C401.011 214.676 401.615 215.022 402.371 215.022C403.126 215.022 403.731 214.676 404.095 214.124C404.459 213.564 404.557 212.8 404.557 212.009C404.557 211.218 404.459 210.453 404.095 209.893C403.731 209.342 403.126 208.996 402.371 208.996C401.615 208.996 401.011 209.342 400.646 209.893C400.282 210.453 400.184 211.218 400.184 212.009Z" fill="#9DB4F4"/>
<path d="M405.789 214.107V214.889H409.478V214.107H408.091V209.129H407.327C407.193 209.751 406.642 210.196 405.842 210.213V210.827H407.238V214.107H405.789Z" fill="#9DB4F4"/>
<path d="M410.763 214.107V214.889H414.452V214.107H413.065V209.129H412.301C412.167 209.751 411.616 210.196 410.816 210.213V210.827H412.212V214.107H410.763Z" fill="#9DB4F4"/>
<path d="M415.968 212.009C415.968 211.12 416.066 209.769 417.292 209.769C418.519 209.769 418.617 211.12 418.617 212.009C418.617 212.898 418.519 214.249 417.292 214.249C416.066 214.249 415.968 212.898 415.968 212.009ZM415.106 212.009C415.106 212.8 415.204 213.564 415.568 214.124C415.932 214.676 416.537 215.022 417.292 215.022C418.048 215.022 418.652 214.676 419.017 214.124C419.381 213.564 419.479 212.8 419.479 212.009C419.479 211.218 419.381 210.453 419.017 209.893C418.652 209.342 418.048 208.996 417.292 208.996C416.537 208.996 415.932 209.342 415.568 209.893C415.204 210.453 415.106 211.218 415.106 212.009Z" fill="#9DB4F4"/>
<path d="M420.711 214.107V214.889H424.4V214.107H423.013V209.129H422.249C422.115 209.751 421.564 210.196 420.764 210.213V210.827H422.16V214.107H420.711Z" fill="#9DB4F4"/>
<path d="M425.685 214.107V214.889H429.374V214.107H427.987V209.129H427.223C427.089 209.751 426.538 210.196 425.738 210.213V210.827H427.134V214.107H425.685Z" fill="#9DB4F4"/>
<path d="M430.659 214.107V214.889H434.348V214.107H432.961V209.129H432.197C432.063 209.751 431.512 210.196 430.712 210.213V210.827H432.108V214.107H430.659Z" fill="#9DB4F4"/>
<path d="M351.307 225.342C351.307 224.454 351.404 223.102 352.631 223.102C353.858 223.102 353.955 224.454 353.955 225.342C353.955 226.231 353.858 227.582 352.631 227.582C351.404 227.582 351.307 226.231 351.307 225.342ZM350.444 225.342C350.444 226.134 350.542 226.898 350.907 227.458C351.271 228.009 351.875 228.356 352.631 228.356C353.387 228.356 353.991 228.009 354.355 227.458C354.72 226.898 354.818 226.134 354.818 225.342C354.818 224.551 354.72 223.787 354.355 223.227C353.991 222.676 353.387 222.329 352.631 222.329C351.875 222.329 351.271 222.676 350.907 223.227C350.542 223.787 350.444 224.551 350.444 225.342Z" fill="#9DB4F4"/>
<path d="M356.049 227.44V228.222H359.738V227.44H358.352V222.462H357.587C357.454 223.085 356.903 223.529 356.103 223.547V224.16H357.498V227.44H356.049Z" fill="#9DB4F4"/>
<path d="M361.254 225.342C361.254 224.454 361.352 223.102 362.579 223.102C363.806 223.102 363.903 224.454 363.903 225.342C363.903 226.231 363.806 227.582 362.579 227.582C361.352 227.582 361.254 226.231 361.254 225.342ZM360.392 225.342C360.392 226.134 360.49 226.898 360.854 227.458C361.219 228.009 361.823 228.356 362.579 228.356C363.334 228.356 363.939 228.009 364.303 227.458C364.668 226.898 364.766 226.134 364.766 225.342C364.766 224.551 364.668 223.787 364.303 223.227C363.939 222.676 363.334 222.329 362.579 222.329C361.823 222.329 361.219 222.676 360.854 223.227C360.49 223.787 360.392 224.551 360.392 225.342Z" fill="#9DB4F4"/>
<path d="M366.228 225.342C366.228 224.454 366.326 223.102 367.553 223.102C368.78 223.102 368.877 224.454 368.877 225.342C368.877 226.231 368.78 227.582 367.553 227.582C366.326 227.582 366.228 226.231 366.228 225.342ZM365.366 225.342C365.366 226.134 365.464 226.898 365.828 227.458C366.193 228.009 366.797 228.356 367.553 228.356C368.308 228.356 368.913 228.009 369.277 227.458C369.642 226.898 369.74 226.134 369.74 225.342C369.74 224.551 369.642 223.787 369.277 223.227C368.913 222.676 368.308 222.329 367.553 222.329C366.797 222.329 366.193 222.676 365.828 223.227C365.464 223.787 365.366 224.551 365.366 225.342Z" fill="#9DB4F4"/>
<path d="M370.971 227.44V228.222H374.66V227.44H373.274V222.462H372.509C372.376 223.085 371.825 223.529 371.025 223.547V224.16H372.42V227.44H370.971Z" fill="#9DB4F4"/>
<path d="M375.945 227.44V228.222H379.634V227.44H378.247V222.462H377.483C377.35 223.085 376.799 223.529 375.999 223.547V224.16H377.394V227.44H375.945Z" fill="#9DB4F4"/>
<path d="M380.919 227.44V228.222H384.608V227.44H383.221V222.462H382.457C382.324 223.085 381.773 223.529 380.973 223.547V224.16H382.368V227.44H380.919Z" fill="#9DB4F4"/>
<path d="M386.124 225.342C386.124 224.454 386.222 223.102 387.449 223.102C388.675 223.102 388.773 224.454 388.773 225.342C388.773 226.231 388.675 227.582 387.449 227.582C386.222 227.582 386.124 226.231 386.124 225.342ZM385.262 225.342C385.262 226.134 385.36 226.898 385.724 227.458C386.089 228.009 386.693 228.356 387.449 228.356C388.204 228.356 388.809 228.009 389.173 227.458C389.538 226.898 389.635 226.134 389.635 225.342C389.635 224.551 389.538 223.787 389.173 223.227C388.809 222.676 388.204 222.329 387.449 222.329C386.693 222.329 386.089 222.676 385.724 223.227C385.36 223.787 385.262 224.551 385.262 225.342Z" fill="#9DB4F4"/>
<path d="M396.072 225.342C396.072 224.454 396.17 223.102 397.397 223.102C398.623 223.102 398.721 224.454 398.721 225.342C398.721 226.231 398.623 227.582 397.397 227.582C396.17 227.582 396.072 226.231 396.072 225.342ZM395.21 225.342C395.21 226.134 395.308 226.898 395.672 227.458C396.037 228.009 396.641 228.356 397.397 228.356C398.152 228.356 398.757 228.009 399.121 227.458C399.486 226.898 399.583 226.134 399.583 225.342C399.583 224.551 399.486 223.787 399.121 223.227C398.757 222.676 398.152 222.329 397.397 222.329C396.641 222.329 396.037 222.676 395.672 223.227C395.308 223.787 395.21 224.551 395.21 225.342Z" fill="#9DB4F4"/>
<path d="M400.815 227.44V228.222H404.504V227.44H403.117V222.462H402.353C402.219 223.085 401.668 223.529 400.868 223.547V224.16H402.264V227.44H400.815Z" fill="#9DB4F4"/>
<path d="M406.02 225.342C406.02 224.454 406.118 223.102 407.345 223.102C408.571 223.102 408.669 224.454 408.669 225.342C408.669 226.231 408.571 227.582 407.345 227.582C406.118 227.582 406.02 226.231 406.02 225.342ZM405.158 225.342C405.158 226.134 405.256 226.898 405.62 227.458C405.985 228.009 406.589 228.356 407.345 228.356C408.1 228.356 408.705 228.009 409.069 227.458C409.433 226.898 409.531 226.134 409.531 225.342C409.531 224.551 409.433 223.787 409.069 223.227C408.705 222.676 408.1 222.329 407.345 222.329C406.589 222.329 405.985 222.676 405.62 223.227C405.256 223.787 405.158 224.551 405.158 225.342Z" fill="#9DB4F4"/>
<path d="M410.994 225.342C410.994 224.454 411.092 223.102 412.318 223.102C413.545 223.102 413.643 224.454 413.643 225.342C413.643 226.231 413.545 227.582 412.318 227.582C411.092 227.582 410.994 226.231 410.994 225.342ZM410.132 225.342C410.132 226.134 410.23 226.898 410.594 227.458C410.958 228.009 411.563 228.356 412.318 228.356C413.074 228.356 413.678 228.009 414.043 227.458C414.407 226.898 414.505 226.134 414.505 225.342C414.505 224.551 414.407 223.787 414.043 223.227C413.678 222.676 413.074 222.329 412.318 222.329C411.563 222.329 410.958 222.676 410.594 223.227C410.23 223.787 410.132 224.551 410.132 225.342Z" fill="#9DB4F4"/>
<path d="M415.737 227.44V228.222H419.426V227.44H418.039V222.462H417.275C417.141 223.085 416.59 223.529 415.79 223.547V224.16H417.186V227.44H415.737Z" fill="#9DB4F4"/>
<path d="M420.942 225.342C420.942 224.454 421.04 223.102 422.266 223.102C423.493 223.102 423.591 224.454 423.591 225.342C423.591 226.231 423.493 227.582 422.266 227.582C421.04 227.582 420.942 226.231 420.942 225.342ZM420.08 225.342C420.08 226.134 420.178 226.898 420.542 227.458C420.906 228.009 421.511 228.356 422.266 228.356C423.022 228.356 423.626 228.009 423.991 227.458C424.355 226.898 424.453 226.134 424.453 225.342C424.453 224.551 424.355 223.787 423.991 223.227C423.626 222.676 423.022 222.329 422.266 222.329C421.511 222.329 420.906 222.676 420.542 223.227C420.178 223.787 420.08 224.551 420.08 225.342Z" fill="#9DB4F4"/>
<path d="M425.685 227.44V228.222H429.374V227.44H427.987V222.462H427.223C427.089 223.085 426.538 223.529 425.738 223.547V224.16H427.134V227.44H425.685Z" fill="#9DB4F4"/>
<path d="M430.659 227.44V228.222H434.348V227.44H432.961V222.462H432.197C432.063 223.085 431.512 223.529 430.712 223.547V224.16H432.108V227.44H430.659Z" fill="#9DB4F4"/>
<path d="M351.307 238.675C351.307 237.787 351.404 236.435 352.631 236.435C353.858 236.435 353.955 237.787 353.955 238.675C353.955 239.564 353.858 240.915 352.631 240.915C351.404 240.915 351.307 239.564 351.307 238.675ZM350.444 238.675C350.444 239.467 350.542 240.231 350.907 240.791C351.271 241.342 351.875 241.689 352.631 241.689C353.387 241.689 353.991 241.342 354.355 240.791C354.72 240.231 354.818 239.467 354.818 238.675C354.818 237.884 354.72 237.12 354.355 236.56C353.991 236.009 353.387 235.662 352.631 235.662C351.875 235.662 351.271 236.009 350.907 236.56C350.542 237.12 350.444 237.884 350.444 238.675Z" fill="#9DB4F4"/>
<path d="M356.281 238.675C356.281 237.787 356.378 236.435 357.605 236.435C358.832 236.435 358.929 237.787 358.929 238.675C358.929 239.564 358.832 240.915 357.605 240.915C356.378 240.915 356.281 239.564 356.281 238.675ZM355.418 238.675C355.418 239.467 355.516 240.231 355.881 240.791C356.245 241.342 356.849 241.689 357.605 241.689C358.361 241.689 358.965 241.342 359.329 240.791C359.694 240.231 359.792 239.467 359.792 238.675C359.792 237.884 359.694 237.12 359.329 236.56C358.965 236.009 358.361 235.662 357.605 235.662C356.849 235.662 356.245 236.009 355.881 236.56C355.516 237.12 355.418 237.884 355.418 238.675Z" fill="#9DB4F4"/>
<path d="M361.023 240.773V241.555H364.712V240.773H363.326V235.795H362.561C362.428 236.418 361.877 236.862 361.077 236.88V237.493H362.472V240.773H361.023Z" fill="#9DB4F4"/>
<path d="M366.228 238.675C366.228 237.787 366.326 236.435 367.553 236.435C368.78 236.435 368.877 237.787 368.877 238.675C368.877 239.564 368.78 240.915 367.553 240.915C366.326 240.915 366.228 239.564 366.228 238.675ZM365.366 238.675C365.366 239.467 365.464 240.231 365.828 240.791C366.193 241.342 366.797 241.689 367.553 241.689C368.308 241.689 368.913 241.342 369.277 240.791C369.642 240.231 369.74 239.467 369.74 238.675C369.74 237.884 369.642 237.12 369.277 236.56C368.913 236.009 368.308 235.662 367.553 235.662C366.797 235.662 366.193 236.009 365.828 236.56C365.464 237.12 365.366 237.884 365.366 238.675Z" fill="#9DB4F4"/>
<path d="M371.202 238.675C371.202 237.787 371.3 236.435 372.527 236.435C373.753 236.435 373.851 237.787 373.851 238.675C373.851 239.564 373.753 240.915 372.527 240.915C371.3 240.915 371.202 239.564 371.202 238.675ZM370.34 238.675C370.34 239.467 370.438 240.231 370.802 240.791C371.167 241.342 371.771 241.689 372.527 241.689C373.282 241.689 373.887 241.342 374.251 240.791C374.616 240.231 374.713 239.467 374.713 238.675C374.713 237.884 374.616 237.12 374.251 236.56C373.887 236.009 373.282 235.662 372.527 235.662C371.771 235.662 371.167 236.009 370.802 236.56C370.438 237.12 370.34 237.884 370.34 238.675Z" fill="#9DB4F4"/>
<path d="M376.176 238.675C376.176 237.787 376.274 236.435 377.501 236.435C378.727 236.435 378.825 237.787 378.825 238.675C378.825 239.564 378.727 240.915 377.501 240.915C376.274 240.915 376.176 239.564 376.176 238.675ZM375.314 238.675C375.314 239.467 375.412 240.231 375.776 240.791C376.141 241.342 376.745 241.689 377.501 241.689C378.256 241.689 378.861 241.342 379.225 240.791C379.59 240.231 379.687 239.467 379.687 238.675C379.687 237.884 379.59 237.12 379.225 236.56C378.861 236.009 378.256 235.662 377.501 235.662C376.745 235.662 376.141 236.009 375.776 236.56C375.412 237.12 375.314 237.884 375.314 238.675Z" fill="#9DB4F4"/>
<path d="M381.15 238.675C381.15 237.787 381.248 236.435 382.475 236.435C383.701 236.435 383.799 237.787 383.799 238.675C383.799 239.564 383.701 240.915 382.475 240.915C381.248 240.915 381.15 239.564 381.15 238.675ZM380.288 238.675C380.288 239.467 380.386 240.231 380.75 240.791C381.115 241.342 381.719 241.689 382.475 241.689C383.23 241.689 383.835 241.342 384.199 240.791C384.564 240.231 384.661 239.467 384.661 238.675C384.661 237.884 384.564 237.12 384.199 236.56C383.835 236.009 383.23 235.662 382.475 235.662C381.719 235.662 381.115 236.009 380.75 236.56C380.386 237.12 380.288 237.884 380.288 238.675Z" fill="#9DB4F4"/>
<path d="M386.124 238.675C386.124 237.787 386.222 236.435 387.449 236.435C388.675 236.435 388.773 237.787 388.773 238.675C388.773 239.564 388.675 240.915 387.449 240.915C386.222 240.915 386.124 239.564 386.124 238.675ZM385.262 238.675C385.262 239.467 385.36 240.231 385.724 240.791C386.089 241.342 386.693 241.689 387.449 241.689C388.204 241.689 388.809 241.342 389.173 240.791C389.538 240.231 389.635 239.467 389.635 238.675C389.635 237.884 389.538 237.12 389.173 236.56C388.809 236.009 388.204 235.662 387.449 235.662C386.693 235.662 386.089 236.009 385.724 236.56C385.36 237.12 385.262 237.884 385.262 238.675Z" fill="#9DB4F4"/>
<path d="M396.072 238.675C396.072 237.787 396.17 236.435 397.397 236.435C398.623 236.435 398.721 237.787 398.721 238.675C398.721 239.564 398.623 240.915 397.397 240.915C396.17 240.915 396.072 239.564 396.072 238.675ZM395.21 238.675C395.21 239.467 395.308 240.231 395.672 240.791C396.037 241.342 396.641 241.689 397.397 241.689C398.152 241.689 398.757 241.342 399.121 240.791C399.486 240.231 399.583 239.467 399.583 238.675C399.583 237.884 399.486 237.12 399.121 236.56C398.757 236.009 398.152 235.662 397.397 235.662C396.641 235.662 396.037 236.009 395.672 236.56C395.308 237.12 395.21 237.884 395.21 238.675Z" fill="#9DB4F4"/>
<path d="M401.046 238.675C401.046 237.787 401.144 236.435 402.371 236.435C403.597 236.435 403.695 237.787 403.695 238.675C403.695 239.564 403.597 240.915 402.371 240.915C401.144 240.915 401.046 239.564 401.046 238.675ZM400.184 238.675C400.184 239.467 400.282 240.231 400.646 240.791C401.011 241.342 401.615 241.689 402.371 241.689C403.126 241.689 403.731 241.342 404.095 240.791C404.459 240.231 404.557 239.467 404.557 238.675C404.557 237.884 404.459 237.12 404.095 236.56C403.731 236.009 403.126 235.662 402.371 235.662C401.615 235.662 401.011 236.009 400.646 236.56C400.282 237.12 400.184 237.884 400.184 238.675Z" fill="#9DB4F4"/>
<path d="M405.789 240.773V241.555H409.478V240.773H408.091V235.795H407.327C407.193 236.418 406.642 236.862 405.842 236.88V237.493H407.238V240.773H405.789Z" fill="#9DB4F4"/>
<path d="M410.763 240.773V241.555H414.452V240.773H413.065V235.795H412.301C412.167 236.418 411.616 236.862 410.816 236.88V237.493H412.212V240.773H410.763Z" fill="#9DB4F4"/>
<path d="M415.968 238.675C415.968 237.787 416.066 236.435 417.292 236.435C418.519 236.435 418.617 237.787 418.617 238.675C418.617 239.564 418.519 240.915 417.292 240.915C416.066 240.915 415.968 239.564 415.968 238.675ZM415.106 238.675C415.106 239.467 415.204 240.231 415.568 240.791C415.932 241.342 416.537 241.689 417.292 241.689C418.048 241.689 418.652 241.342 419.017 240.791C419.381 240.231 419.479 239.467 419.479 238.675C419.479 237.884 419.381 237.12 419.017 236.56C418.652 236.009 418.048 235.662 417.292 235.662C416.537 235.662 415.932 236.009 415.568 236.56C415.204 237.12 415.106 237.884 415.106 238.675Z" fill="#9DB4F4"/>
<path d="M420.711 240.773V241.555H424.4V240.773H423.013V235.795H422.249C422.115 236.418 421.564 236.862 420.764 236.88V237.493H422.16V240.773H420.711Z" fill="#9DB4F4"/>
<path d="M425.685 240.773V241.555H429.374V240.773H427.987V235.795H427.223C427.089 236.418 426.538 236.862 425.738 236.88V237.493H427.134V240.773H425.685Z" fill="#9DB4F4"/>
<path d="M430.659 240.773V241.555H434.348V240.773H432.961V235.795H432.197C432.063 236.418 431.512 236.862 430.712 236.88V237.493H432.108V240.773H430.659Z" fill="#9DB4F4"/>
<path d="M351.307 252.009C351.307 251.12 351.404 249.769 352.631 249.769C353.858 249.769 353.955 251.12 353.955 252.009C353.955 252.898 353.858 254.249 352.631 254.249C351.404 254.249 351.307 252.898 351.307 252.009ZM350.444 252.009C350.444 252.8 350.542 253.564 350.907 254.124C351.271 254.676 351.875 255.022 352.631 255.022C353.387 255.022 353.991 254.676 354.355 254.124C354.72 253.564 354.818 252.8 354.818 252.009C354.818 251.218 354.72 250.453 354.355 249.893C353.991 249.342 353.387 248.996 352.631 248.996C351.875 248.996 351.271 249.342 350.907 249.893C350.542 250.453 350.444 251.218 350.444 252.009Z" fill="#9DB4F4"/>
<path d="M356.281 252.009C356.281 251.12 356.378 249.769 357.605 249.769C358.832 249.769 358.929 251.12 358.929 252.009C358.929 252.898 358.832 254.249 357.605 254.249C356.378 254.249 356.281 252.898 356.281 252.009ZM355.418 252.009C355.418 252.8 355.516 253.564 355.881 254.124C356.245 254.676 356.849 255.022 357.605 255.022C358.361 255.022 358.965 254.676 359.329 254.124C359.694 253.564 359.792 252.8 359.792 252.009C359.792 251.218 359.694 250.453 359.329 249.893C358.965 249.342 358.361 248.996 357.605 248.996C356.849 248.996 356.245 249.342 355.881 249.893C355.516 250.453 355.418 251.218 355.418 252.009Z" fill="#9DB4F4"/>
<path d="M361.023 254.107V254.889H364.712V254.107H363.326V249.129H362.561C362.428 249.751 361.877 250.196 361.077 250.213V250.827H362.472V254.107H361.023Z" fill="#9DB4F4"/>
<path d="M365.997 254.107V254.889H369.686V254.107H368.3V249.129H367.535C367.402 249.751 366.851 250.196 366.051 250.213V250.827H367.446V254.107H365.997Z" fill="#9DB4F4"/>
<path d="M371.202 252.009C371.202 251.12 371.3 249.769 372.527 249.769C373.753 249.769 373.851 251.12 373.851 252.009C373.851 252.898 373.753 254.249 372.527 254.249C371.3 254.249 371.202 252.898 371.202 252.009ZM370.34 252.009C370.34 252.8 370.438 253.564 370.802 254.124C371.167 254.676 371.771 255.022 372.527 255.022C373.282 255.022 373.887 254.676 374.251 254.124C374.616 253.564 374.713 252.8 374.713 252.009C374.713 251.218 374.616 250.453 374.251 249.893C373.887 249.342 373.282 248.996 372.527 248.996C371.771 248.996 371.167 249.342 370.802 249.893C370.438 250.453 370.34 251.218 370.34 252.009Z" fill="#9DB4F4"/>
<path d="M375.945 254.107V254.889H379.634V254.107H378.247V249.129H377.483C377.35 249.751 376.799 250.196 375.999 250.213V250.827H377.394V254.107H375.945Z" fill="#9DB4F4"/>
<path d="M380.919 254.107V254.889H384.608V254.107H383.221V249.129H382.457C382.324 249.751 381.773 250.196 380.973 250.213V250.827H382.368V254.107H380.919Z" fill="#9DB4F4"/>
<path d="M385.893 254.107V254.889H389.582V254.107H388.195V249.129H387.431C387.298 249.751 386.746 250.196 385.946 250.213V250.827H387.342V254.107H385.893Z" fill="#9DB4F4"/>
<path d="M396.072 252.009C396.072 251.12 396.17 249.769 397.397 249.769C398.623 249.769 398.721 251.12 398.721 252.009C398.721 252.898 398.623 254.249 397.397 254.249C396.17 254.249 396.072 252.898 396.072 252.009ZM395.21 252.009C395.21 252.8 395.308 253.564 395.672 254.124C396.037 254.676 396.641 255.022 397.397 255.022C398.152 255.022 398.757 254.676 399.121 254.124C399.486 253.564 399.583 252.8 399.583 252.009C399.583 251.218 399.486 250.453 399.121 249.893C398.757 249.342 398.152 248.996 397.397 248.996C396.641 248.996 396.037 249.342 395.672 249.893C395.308 250.453 395.21 251.218 395.21 252.009Z" fill="#9DB4F4"/>
<path d="M401.046 252.009C401.046 251.12 401.144 249.769 402.371 249.769C403.597 249.769 403.695 251.12 403.695 252.009C403.695 252.898 403.597 254.249 402.371 254.249C401.144 254.249 401.046 252.898 401.046 252.009ZM400.184 252.009C400.184 252.8 400.282 253.564 400.646 254.124C401.011 254.676 401.615 255.022 402.371 255.022C403.126 255.022 403.731 254.676 404.095 254.124C404.459 253.564 404.557 252.8 404.557 252.009C404.557 251.218 404.459 250.453 404.095 249.893C403.731 249.342 403.126 248.996 402.371 248.996C401.615 248.996 401.011 249.342 400.646 249.893C400.282 250.453 400.184 251.218 400.184 252.009Z" fill="#9DB4F4"/>
<path d="M405.789 254.107V254.889H409.478V254.107H408.091V249.129H407.327C407.193 249.751 406.642 250.196 405.842 250.213V250.827H407.238V254.107H405.789Z" fill="#9DB4F4"/>
<path d="M410.763 254.107V254.889H414.452V254.107H413.065V249.129H412.301C412.167 249.751 411.616 250.196 410.816 250.213V250.827H412.212V254.107H410.763Z" fill="#9DB4F4"/>
<path d="M415.968 252.009C415.968 251.12 416.066 249.769 417.292 249.769C418.519 249.769 418.617 251.12 418.617 252.009C418.617 252.898 418.519 254.249 417.292 254.249C416.066 254.249 415.968 252.898 415.968 252.009ZM415.106 252.009C415.106 252.8 415.204 253.564 415.568 254.124C415.932 254.676 416.537 255.022 417.292 255.022C418.048 255.022 418.652 254.676 419.017 254.124C419.381 253.564 419.479 252.8 419.479 252.009C419.479 251.218 419.381 250.453 419.017 249.893C418.652 249.342 418.048 248.996 417.292 248.996C416.537 248.996 415.932 249.342 415.568 249.893C415.204 250.453 415.106 251.218 415.106 252.009Z" fill="#9DB4F4"/>
<path d="M420.711 254.107V254.889H424.4V254.107H423.013V249.129H422.249C422.115 249.751 421.564 250.196 420.764 250.213V250.827H422.16V254.107H420.711Z" fill="#9DB4F4"/>
<path d="M425.685 254.107V254.889H429.374V254.107H427.987V249.129H427.223C427.089 249.751 426.538 250.196 425.738 250.213V250.827H427.134V254.107H425.685Z" fill="#9DB4F4"/>
<path d="M430.659 254.107V254.889H434.348V254.107H432.961V249.129H432.197C432.063 249.751 431.512 250.196 430.712 250.213V250.827H432.108V254.107H430.659Z" fill="#9DB4F4"/>
<path fill-rule="evenodd" clip-rule="evenodd" d="M6.4465 151.426L6.44651 128.672L5.80762 128.672L5.80762 152.065L117.219 152.065L117.219 151.426L6.4465 151.426Z" fill="#9DB4F4"/>
<path fill-rule="evenodd" clip-rule="evenodd" d="M5.79416 114.653C3.30858 114.653 1.31955 116.571 1.31955 118.907C1.31955 121.243 3.30858 123.161 5.79416 123.161C8.27974 123.161 10.2688 121.243 10.2688 118.907C10.2688 116.571 8.27975 114.653 5.79416 114.653ZM0.680664 118.907C0.680664 116.19 2.98438 114.014 5.79416 114.014C8.60395 114.014 10.9077 116.19 10.9077 118.907C10.9077 121.623 8.60395 123.8 5.79416 123.8C2.98438 123.8 0.680663 121.623 0.680664 118.907Z" fill="#9DB4F4"/>
<path fill-rule="evenodd" clip-rule="evenodd" d="M188.542 356.991C188.542 354.633 190.453 352.722 192.811 352.722C195.169 352.722 197.081 354.633 197.081 356.991C197.081 359.349 195.169 361.261 192.811 361.261C190.453 361.261 188.542 359.349 188.542 356.991ZM192.811 352.083C190.1 352.083 187.903 354.281 187.903 356.991C187.903 359.702 190.1 361.9 192.811 361.9C195.522 361.9 197.72 359.702 197.72 356.991C197.72 354.281 195.522 352.083 192.811 352.083Z" fill="#9DB4F4"/>
<path fill-rule="evenodd" clip-rule="evenodd" d="M192.646 259.889L192.646 348.275L193.285 348.275L193.285 259.889L192.646 259.889Z" fill="#9DB4F4"/>
<path d="M300.692 111.007H75.7377C75.203 111.007 74.7695 111.44 74.7695 111.975V267.97C74.7695 268.505 75.203 268.939 75.7377 268.939H300.692C301.227 268.939 301.661 268.505 301.661 267.97V111.975C301.661 111.44 301.227 111.007 300.692 111.007Z" fill="#CEDAFD"/>
<path d="M291.973 102.16H67.0182C66.4835 102.16 66.05 102.594 66.05 103.128V259.124C66.05 259.658 66.4835 260.092 67.0182 260.092H291.973C292.508 260.092 292.941 259.658 292.941 259.124V103.128C292.941 102.594 292.508 102.16 291.973 102.16Z" fill="url(#paint1_linear_1058_104957)"/>
<path fill-rule="evenodd" clip-rule="evenodd" d="M69.9221 101.236L289.062 101.236C290.335 101.237 291.556 101.743 292.456 102.642C293.357 103.542 293.863 104.763 293.865 106.036V256.214C293.863 257.487 293.357 258.707 292.456 259.607C291.556 260.507 290.335 261.013 289.062 261.014H69.9221C68.6499 261.012 67.4299 260.506 66.5306 259.606C65.6314 258.706 65.1259 257.486 65.125 256.214L65.125 106.036C65.1259 104.764 65.6314 103.544 66.5306 102.644C67.4299 101.744 68.6499 101.238 69.9221 101.236ZM289.062 101.875H69.9223C68.8194 101.876 67.7622 102.315 66.9826 103.095C66.2029 103.876 65.7647 104.933 65.7639 106.036V256.214C65.7646 257.316 66.2029 258.374 66.9826 259.154C67.7622 259.934 68.8196 260.373 69.9225 260.375H289.062C290.165 260.374 291.224 259.935 292.005 259.155C292.785 258.375 293.225 257.317 293.226 256.213V106.036C293.225 104.933 292.785 103.875 292.005 103.094C291.224 102.314 290.165 101.875 289.062 101.875ZM69.9215 102.446L69.9221 102.446L289.062 102.446C290.014 102.447 290.927 102.825 291.6 103.498C292.274 104.171 292.653 105.083 292.655 106.035V256.214C292.653 257.166 292.274 258.079 291.6 258.751C290.927 259.424 290.014 259.803 289.062 259.803H69.9215C68.9703 259.802 68.0586 259.423 67.3864 258.75C66.7141 258.077 66.3361 257.165 66.3352 256.214L66.3352 106.036C66.3361 105.085 66.7141 104.172 67.3864 103.5C68.0586 102.827 68.9703 102.448 69.9215 102.446ZM69.9224 103.085C69.1405 103.086 68.391 103.398 67.8383 103.951C67.2856 104.504 66.9748 105.254 66.9741 106.036C66.9741 106.036 66.9741 106.036 66.9741 106.036L66.9741 256.213C66.9741 256.213 66.9741 256.213 66.9741 256.213C66.9748 256.995 67.2856 257.745 67.8383 258.298C68.3911 258.852 69.1406 259.163 69.9227 259.165H289.062C289.844 259.164 290.595 258.853 291.149 258.299C291.703 257.746 292.015 256.996 292.016 256.213V106.037C292.015 105.254 291.703 104.503 291.149 103.95C290.595 103.397 289.844 103.086 289.062 103.085C289.062 103.085 289.062 103.085 289.062 103.085H69.9224Z" fill="#375BD2"/>
<g opacity="0.15">
<path opacity="0.15" d="M92.2458 138.726L99.8579 134.887V137.068L94.6178 139.597L99.8579 142.13V144.329L92.2458 140.517V138.726Z" fill="#2C5BDE"/>
<path opacity="0.15" d="M102.563 144.995H100.446L106.714 132.125H108.856L102.563 144.995Z" fill="#2C5BDE"/>
<path opacity="0.15" d="M117.029 140.499L109.417 144.329V142.151L114.657 139.618L109.417 137.086V134.875L117.029 138.714V140.499Z" fill="#2C5BDE"/>
<path opacity="0.15" d="M202.136 165.368H91.6375V166.3H202.136V165.368Z" fill="#2C5BDE"/>
<path opacity="0.15" d="M202.136 170.99H91.6375V171.922H202.136V170.99Z" fill="#2C5BDE"/>
<path opacity="0.15" d="M202.136 182.226H91.6375V183.157H202.136V182.226Z" fill="#2C5BDE"/>
<path opacity="0.15" d="M154.803 187.847H91.6375V188.779H154.803V187.847Z" fill="#2C5BDE"/>
<path opacity="0.15" d="M154.803 193.465H91.6375V194.397H154.803V193.465Z" fill="#2C5BDE"/>
<path opacity="0.15" d="M222.092 176.608H91.6375V177.54H222.092V176.608Z" fill="#2C5BDE"/>
<path opacity="0.15" d="M255.287 151.908H91.6375V159.363H255.287V151.908Z" fill="#2C5BDE"/>
<path opacity="0.15" d="M238.741 220.117H91.6375V221.049H238.741V220.117Z" fill="#2C5BDE"/>
<path opacity="0.15" d="M238.741 225.738H91.6375V226.67H238.741V225.738Z" fill="#2C5BDE"/>
<path opacity="0.15" d="M202.136 236.975H91.6375V237.906H202.136V236.975Z" fill="#2C5BDE"/>
<path opacity="0.15" d="M201.346 231.356H91.6375V232.288H201.346V231.356Z" fill="#2C5BDE"/>
<path opacity="0.15" d="M255.287 206.657H91.6375V214.111H255.287V206.657Z" fill="#2C5BDE"/>
</g>
<path d="M285.102 119.164H73.8892V119.769H285.102V119.164Z" fill="#2F59D4"/>
<path d="M77.5135 114.465C78.8435 114.465 79.9217 113.387 79.9217 112.057C79.9217 110.727 78.8435 109.648 77.5135 109.648C76.1834 109.648 75.1052 110.727 75.1052 112.057C75.1052 113.387 76.1834 114.465 77.5135 114.465Z" fill="url(#paint2_linear_1058_104957)"/>
<path d="M85.6285 114.465C86.9585 114.465 88.0367 113.387 88.0367 112.057C88.0367 110.727 86.9585 109.648 85.6285 109.648C84.2984 109.648 83.2202 110.727 83.2202 112.057C83.2202 113.387 84.2984 114.465 85.6285 114.465Z" fill="url(#paint3_linear_1058_104957)"/>
<path d="M93.742 114.465C95.072 114.465 96.1503 113.387 96.1503 112.057C96.1503 110.727 95.072 109.648 93.742 109.648C92.412 109.648 91.3337 110.727 91.3337 112.057C91.3337 113.387 92.412 114.465 93.742 114.465Z" fill="url(#paint4_linear_1058_104957)"/>
<path fill-rule="evenodd" clip-rule="evenodd" d="M350.429 346.476L350.429 352.626H350.428C350.429 352.649 350.429 352.672 350.429 352.695C350.429 358.533 327.26 363.266 298.679 363.266C270.098 363.266 246.929 358.533 246.929 352.695C246.929 352.672 246.93 352.649 246.93 352.626H246.929V346.482C246.929 346.48 246.929 346.478 246.929 346.476C246.929 346.475 246.929 346.473 246.929 346.471V346.407H246.93C247.112 340.601 270.211 335.905 298.679 335.905C327.147 335.905 350.247 340.601 350.428 346.407H350.429L350.429 346.476Z" fill="#375BD2"/>
<path d="M350.444 346.466C350.444 352.319 327.284 357.064 298.714 357.064C270.145 357.064 246.984 352.319 246.984 346.466C246.984 340.614 270.145 335.869 298.714 335.869C327.284 335.869 350.444 340.614 350.444 346.466Z" fill="#486BDE"/>
<path d="M350.131 346.074C350.131 351.71 327.111 356.279 298.715 356.279C270.319 356.279 247.299 351.71 247.299 346.074C247.299 340.438 270.319 335.869 298.715 335.869C327.111 335.869 350.131 340.438 350.131 346.074Z" fill="#375BD2"/>
<path d="M348.287 345.996V343.343C348.235 338.136 326.044 333.918 298.679 333.918C271.314 333.918 249.124 338.136 249.072 343.343L249.072 343.361V345.996" fill="url(#paint5_radial_1058_104957)"/>
<path d="M348.287 345.999C348.276 351.213 326.07 355.439 298.679 355.439C271.288 355.439 249.082 351.213 249.072 345.999" fill="url(#paint6_radial_1058_104957)"/>
<path d="M348.247 343.18C348.247 348.383 326.07 352.6 298.715 352.6C271.359 352.6 249.183 348.383 249.183 343.18C249.183 337.978 271.359 333.761 298.715 333.761C326.07 333.761 348.247 337.978 348.247 343.18Z" fill="#486BDE"/>
<path d="M347.775 342.934C347.775 347.876 325.81 351.883 298.714 351.883C271.619 351.883 249.653 347.876 249.653 342.934C249.653 337.992 271.619 333.985 298.714 333.985C325.81 333.985 347.775 337.992 347.775 342.934Z" fill="#375BD2"/>
<path fill-rule="evenodd" clip-rule="evenodd" d="M347.965 150.243V144.387H347.964C347.965 144.365 347.965 144.343 347.965 144.321C347.965 138.761 325.899 134.254 298.68 134.254C271.46 134.254 249.394 138.761 249.394 144.321C249.394 144.343 249.394 144.365 249.395 144.387H249.394V150.309H249.395C249.568 155.839 271.567 160.311 298.68 160.311C325.792 160.311 347.791 155.839 347.964 150.309H347.965V150.243Z" fill="#375BD2"/>
<path d="M347.98 150.252C347.98 144.678 325.923 140.16 298.713 140.16C271.504 140.16 249.447 144.678 249.447 150.252C249.447 155.826 271.504 160.345 298.713 160.345C325.923 160.345 347.98 155.826 347.98 150.252Z" fill="#486BDE"/>
<path d="M347.681 150.626C347.681 145.258 325.758 140.907 298.714 140.907C271.67 140.907 249.746 145.258 249.746 150.626C249.746 155.993 271.67 160.345 298.714 160.345C325.758 160.345 347.681 155.993 347.681 150.626Z" fill="#375BD2"/>
<path d="M345.925 150.701V153.227C345.875 158.186 324.742 162.204 298.68 162.204C272.618 162.204 251.484 158.186 251.435 153.227L251.435 153.21V150.701" fill="url(#paint7_radial_1058_104957)"/>
<path d="M345.925 150.698C345.915 145.732 324.766 141.707 298.68 141.707C272.593 141.707 251.445 145.732 251.435 150.698" fill="url(#paint8_radial_1058_104957)"/>
<path d="M345.887 153.382C345.887 148.427 324.766 144.411 298.713 144.411C272.66 144.411 251.54 148.427 251.54 153.382C251.54 158.337 272.66 162.353 298.713 162.353C324.766 162.353 345.887 158.337 345.887 153.382Z" fill="#486BDE"/>
<path d="M345.438 153.617C345.438 148.91 324.519 145.094 298.714 145.094C272.908 145.094 251.989 148.91 251.989 153.617C251.989 158.323 272.908 162.139 298.714 162.139C324.519 162.139 345.438 158.323 345.438 153.617Z" fill="#375BD2"/>
<path d="M342.866 152.461C336.988 148.101 319.219 144.932 298.213 144.932C275.668 144.932 256.853 148.582 252.463 153.438C250.222 155.422 248.584 158.053 247.908 161.113C241.64 189.483 251.453 210.543 289.506 245.565C291.344 247.256 291.344 250.186 289.506 251.878C251.453 286.899 241.64 307.959 247.908 336.329C248.548 339.228 250.052 341.741 252.113 343.685C255.75 348.755 275.005 352.623 298.213 352.623C320.724 352.623 339.516 348.984 343.943 344.139C346.283 342.134 347.995 339.442 348.69 336.293C354.941 307.941 345.12 286.884 307.084 251.878C305.246 250.186 305.246 247.256 307.084 245.565C345.12 210.558 354.941 189.501 348.69 161.15C347.893 157.535 345.754 154.522 342.866 152.461Z" fill="url(#paint9_linear_1058_104957)"/>
<path d="M298.297 246.652C287.702 239.453 282.446 234.866 274.413 225.577C293.257 218.041 301.356 226.139 311.663 227.225C314.336 227.507 316.793 231.592 314.877 233.477C310.208 238.071 305.478 241.752 298.297 246.652Z" fill="url(#paint10_linear_1058_104957)"/>
<path fill-rule="evenodd" clip-rule="evenodd" d="M300.656 247.625C300.86 245.828 301.841 244.211 303.307 243.15C310.484 237.955 315.152 233.623 321.42 226.454C321.853 225.959 321.836 225.211 321.362 224.755C312.526 216.254 304.096 219.644 295.49 223.103L295.49 223.103C288.67 225.845 281.74 228.63 274.413 225.577C280.933 233.15 285.668 237.613 293.293 243.143C294.755 244.202 295.733 245.817 295.937 247.611C297.842 264.316 297.762 275.022 295.718 292.489C295.608 293.431 294.975 294.235 294.091 294.576L294.079 294.58C277.84 300.749 268.113 306.339 255.927 316.477C254.186 317.926 252.395 319.467 250.528 321.116C250.483 321.759 250.447 322.383 250.421 322.989C250.013 332.512 252.069 337.547 258.995 343.057C260.007 343.862 261.16 344.452 262.385 344.844C268.521 347.422 282.392 349.22 298.52 349.22C317.675 349.22 333.645 346.683 337.257 343.317C337.372 343.234 337.486 343.147 337.598 343.058C337.917 342.805 338.225 342.553 338.523 342.301C344.709 337.076 346.562 332.075 346.174 322.989C346.148 322.383 346.112 321.759 346.067 321.116C331.128 307.924 321.074 301.631 302.516 294.58L302.513 294.579C301.624 294.24 300.987 293.434 300.877 292.489C298.833 275.027 298.752 264.322 300.656 247.625Z" fill="url(#paint11_linear_1058_104957)"/>
<path d="M271.665 326.062C272.186 331.85 275.196 336.714 279.54 340.142C279.823 340.365 279.641 340.841 279.282 340.803C269.735 339.792 261.263 333.057 260.401 323.495C259.097 309.014 264.236 296.331 278.896 280.059C279.612 279.265 280.637 278.815 281.706 278.815H288.296C289.393 278.815 289.978 280.117 289.269 280.953C275.231 297.51 270.3 310.907 271.665 326.062Z" fill="url(#paint12_linear_1058_104957)" fill-opacity="0.4"/>
<defs>
<linearGradient id="paint0_linear_1058_104957" x1="232.811" y1="43.7972" x2="383.326" y2="194.06" gradientUnits="userSpaceOnUse">
<stop stop-color="#F5F7FD"/>
<stop offset="0.54" stop-color="#EDEFFD"/>
<stop offset="1" stop-color="#E4E7F9"/>
</linearGradient>
<linearGradient id="paint1_linear_1058_104957" x1="102.976" y1="75.8054" x2="256.012" y2="286.444" gradientUnits="userSpaceOnUse">
<stop stop-color="white"/>
<stop offset="1" stop-color="#F3F3F8"/>
</linearGradient>
<linearGradient id="paint2_linear_1058_104957" x1="75.1022" y1="112.057" x2="79.9217" y2="112.057" gradientUnits="userSpaceOnUse">
<stop stop-color="#2A5ADA"/>
<stop offset="1" stop-color="#2A5ADA" stop-opacity="0.8"/>
</linearGradient>
<linearGradient id="paint3_linear_1058_104957" x1="83.2202" y1="112.057" x2="88.0367" y2="112.057" gradientUnits="userSpaceOnUse">
<stop stop-color="#2A5ADA"/>
<stop offset="1" stop-color="#2A5ADA" stop-opacity="0.8"/>
</linearGradient>
<linearGradient id="paint4_linear_1058_104957" x1="91.3337" y1="112.057" x2="96.1503" y2="112.057" gradientUnits="userSpaceOnUse">
<stop stop-color="#2A5ADA"/>
<stop offset="1" stop-color="#2A5ADA" stop-opacity="0.8"/>
</linearGradient>
<radialGradient id="paint5_radial_1058_104957" cx="0" cy="0" r="1" gradientUnits="userSpaceOnUse" gradientTransform="translate(298.746 345.468) rotate(-90) scale(20.786 106.407)">
<stop stop-color="#375BD2"/>
<stop offset="1" stop-color="#1A2B6B"/>
</radialGradient>
<radialGradient id="paint6_radial_1058_104957" cx="0" cy="0" r="1" gradientUnits="userSpaceOnUse" gradientTransform="translate(298.746 345.468) rotate(-90) scale(20.786 106.407)">
<stop stop-color="#375BD2"/>
<stop offset="1" stop-color="#1A2B6B"/>
</radialGradient>
<radialGradient id="paint7_radial_1058_104957" cx="0" cy="0" r="1" gradientUnits="userSpaceOnUse" gradientTransform="translate(298.743 151.204) rotate(90) scale(19.7962 101.34)">
<stop stop-color="#375BD2"/>
<stop offset="1" stop-color="#1A2B6B"/>
</radialGradient>
<radialGradient id="paint8_radial_1058_104957" cx="0" cy="0" r="1" gradientUnits="userSpaceOnUse" gradientTransform="translate(298.743 151.204) rotate(90) scale(19.7962 101.34)">
<stop stop-color="#375BD2"/>
<stop offset="1" stop-color="#1A2B6B"/>
</radialGradient>
<linearGradient id="paint9_linear_1058_104957" x1="222.884" y1="95.3635" x2="353.334" y2="363.306" gradientUnits="userSpaceOnUse">
<stop stop-color="white"/>
<stop offset="1" stop-color="white"/>
</linearGradient>
<linearGradient id="paint10_linear_1058_104957" x1="270.744" y1="221.362" x2="312.191" y2="229.09" gradientUnits="userSpaceOnUse">
<stop stop-color="#8CA5E1"/>
<stop offset="1" stop-color="#375BD2"/>
</linearGradient>
<linearGradient id="paint11_linear_1058_104957" x1="255.992" y1="187.643" x2="354.34" y2="348.513" gradientUnits="userSpaceOnUse">
<stop offset="0.521223" stop-color="#A0B3F2"/>
<stop offset="1" stop-color="#375BD2"/>
</linearGradient>
<linearGradient id="paint12_linear_1058_104957" x1="265.124" y1="290.909" x2="278.471" y2="342.191" gradientUnits="userSpaceOnUse">
<stop stop-color="white" stop-opacity="0"/>
<stop offset="1" stop-color="white" stop-opacity="0.6"/>
</linearGradient>
</defs>
</svg>
