<svg width="88" height="24" viewBox="0 0 88 24" fill="none" xmlns="http://www.w3.org/2000/svg">
<path d="M12.4552 5.08507L18.4881 8.53015V15.4478L12.4718 18.9149L6.43889 15.4753V8.55767L12.4552 5.08507ZM12.4552 0L10.2413 1.27677L4.21391 4.74937L2 6.02614V8.56868V15.4809V18.0234L4.21391 19.2892L10.2468 22.7342L12.4607 24L14.6746 22.7232L20.6909 19.2506L22.9048 17.9794V15.4368V8.51915V5.97661L20.6909 4.71085L14.658 1.26576L12.4441 0H12.4552Z" fill="#375BD2"/>
<path d="M40.816 9.312L39.088 9.856C38.976 9.152 38.384 8.112 36.864 8.112C35.712 8.112 34.912 8.88 34.912 9.744C34.912 10.464 35.36 11.008 36.24 11.2L37.872 11.536C39.872 11.936 40.944 13.2 40.944 14.8C40.944 16.56 39.52 18.24 36.928 18.24C34.048 18.24 32.72 16.384 32.544 14.752L34.336 14.24C34.448 15.424 35.296 16.512 36.928 16.512C38.288 16.512 38.992 15.824 38.992 14.944C38.992 14.208 38.448 13.616 37.472 13.408L35.872 13.072C34.144 12.72 32.992 11.584 32.992 9.888C32.992 7.984 34.736 6.416 36.848 6.416C39.52 6.416 40.56 8.048 40.816 9.312ZM45.0989 7.824V10.208H46.7149V11.856H45.0989V15.472C45.0989 16.16 45.4029 16.448 46.0909 16.448C46.3469 16.448 46.6509 16.4 46.7309 16.384V17.92C46.6189 17.968 46.2669 18.096 45.5949 18.096C44.1549 18.096 43.2589 17.232 43.2589 15.776V11.856H41.8189V10.208H42.2189C43.0509 10.208 43.4189 9.68 43.4189 8.992V7.824H45.0989ZM48.1575 15.888C48.1575 14.496 49.1815 13.728 50.5095 13.536L52.5095 13.232C52.9575 13.168 53.0855 12.944 53.0855 12.672C53.0855 12.016 52.6375 11.488 51.6135 11.488C50.6375 11.488 50.0935 12.112 50.0135 12.896L48.3175 12.512C48.4615 11.168 49.6775 9.968 51.5975 9.968C53.9975 9.968 54.9095 11.328 54.9095 12.88V16.752C54.9095 17.456 54.9895 17.92 55.0055 18H53.2775C53.2615 17.952 53.1975 17.632 53.1975 17.008C52.8295 17.6 52.0615 18.24 50.7975 18.24C49.1655 18.24 48.1575 17.12 48.1575 15.888ZM51.1495 16.784C52.1895 16.784 53.0855 16.288 53.0855 14.768V14.416L51.0535 14.72C50.4775 14.816 50.0135 15.136 50.0135 15.776C50.0135 16.304 50.4135 16.784 51.1495 16.784ZM64.4491 10.208L61.2491 13.504L64.5131 18H62.2411L59.9531 14.816L58.9931 15.824V18H57.1531V6.416H58.9931V13.36L61.9851 10.208H64.4491ZM67.6963 18H65.8563V10.208H67.6963V18ZM65.5683 7.472C65.5683 6.8 66.1123 6.256 66.7682 6.256C67.4403 6.256 67.9843 6.8 67.9843 7.472C67.9843 8.144 67.4403 8.672 66.7682 8.672C66.1123 8.672 65.5683 8.144 65.5683 7.472ZM71.9466 13.504V18H70.0906V10.208H71.8986V11.248C72.4106 10.352 73.3386 9.984 74.2026 9.984C76.1066 9.984 77.0186 11.36 77.0186 13.072V18H75.1626V13.392C75.1626 12.432 74.7306 11.664 73.5626 11.664C72.5066 11.664 71.9466 12.48 71.9466 13.504ZM78.7181 18.432L80.4301 17.984C80.5581 18.944 81.3101 19.664 82.3821 19.664C83.8541 19.664 84.5901 18.912 84.5901 17.328V16.512C84.2541 17.12 83.4701 17.648 82.3341 17.648C80.2541 17.648 78.7341 16.048 78.7341 13.856C78.7341 11.776 80.1901 10.064 82.3341 10.064C83.5501 10.064 84.3021 10.56 84.6381 11.2V10.208H86.4301V17.264C86.4301 19.344 85.3581 21.28 82.4301 21.28C80.3661 21.28 78.9261 20 78.7181 18.432ZM82.6381 16.064C83.8221 16.064 84.6381 15.2 84.6381 13.856C84.6381 12.528 83.7901 11.664 82.6381 11.664C81.4541 11.664 80.6061 12.528 80.6061 13.856C80.6061 15.216 81.4221 16.064 82.6381 16.064Z" fill="#375BD2"/>
</svg>
